<?xml version="1.0" standalone="no"?>
<!DOCTYPE svg PUBLIC "-//W3C//DTD SVG 1.1//EN" "http://www.w3.org/Graphics/SVG/1.1/DTD/svg11.dtd">
<svg width="100%" height="100%" viewBox="0 0 511 471" version="1.1" xmlns="http://www.w3.org/2000/svg" xmlns:xlink="http://www.w3.org/1999/xlink" xml:space="preserve" style="fill-rule:evenodd;clip-rule:evenodd;stroke-linejoin:round;stroke-miterlimit:1.41421;">
    <g transform="matrix(-1,0,0,1,494.999,14.54)">
        <path d="M229.764,449.356L228.24,448.305L226.712,447.248L225.19,446.192L223.674,445.136L222.164,444.081L220.66,443.027L219.161,441.973L217.668,440.92L216.182,439.867L214.701,438.815L213.226,437.764L211.756,436.714L210.293,435.664L208.835,434.615L207.383,433.566L205.937,432.518L204.497,431.471L203.062,430.425L201.633,429.379L200.21,428.334L198.793,427.289L197.381,426.246L195.975,425.202L194.574,424.16L193.18,423.119L191.791,422.078L190.407,421.038L189.029,419.998L187.657,418.959L186.291,417.921L184.93,416.884L183.575,415.848L182.225,414.812L180.881,413.777L179.542,412.743L178.209,411.709L176.882,410.677L175.56,409.645L174.243,408.613L172.932,407.583L171.627,406.553L170.327,405.525L169.033,404.497L167.744,403.469L166.46,402.443L165.182,401.417L163.909,400.392L162.642,399.368L161.38,398.345L160.124,397.322L158.872,396.301L157.627,395.28L156.386,394.26L155.151,393.241L153.922,392.223L152.697,391.205L151.479,390.189L150.265,389.173L149.056,388.158L147.853,387.144L146.656,386.131L145.463,385.118L144.276,384.107L143.094,383.096L141.917,382.087L140.745,381.078L139.579,380.07L138.418,379.063L137.262,378.056L136.111,377.051L134.965,376.047L133.825,375.043L132.689,374.041L131.559,373.039L130.434,372.039L129.314,371.039L128.199,370.04L127.089,369.042L125.985,368.045L124.885,367.049L123.79,366.054L122.701,365.06L121.616,364.066L120.537,363.074L119.463,362.083L118.393,361.093L117.329,360.103L116.269,359.115L115.215,358.127L114.165,357.141L113.121,356.156L112.081,355.171L111.046,354.188L110.016,353.205L108.991,352.224L107.971,351.243L106.956,350.264L105.946,349.286L104.941,348.308L103.94,347.332L102.944,346.356L101.954,345.382L100.968,344.409L99.986,343.437L99.01,342.465L98.038,341.495L97.071,340.526L96.109,339.558L95.152,338.591L94.199,337.625L93.251,336.66L92.308,335.697L91.37,334.734L90.436,333.772L89.507,332.812L88.582,331.852L87.663,330.894L86.748,329.937L85.837,328.981L84.931,328.026L84.03,327.072L83.134,326.119L82.242,325.167L81.354,324.217L80.472,323.267L79.593,322.319L78.72,321.372L77.851,320.426L76.986,319.481L76.126,318.537L75.27,317.594L74.419,316.653L73.573,315.713L72.731,314.774L71.893,313.836L71.06,312.899L70.231,311.963L69.407,311.029L68.587,310.096L67.772,309.164L66.961,308.233L66.154,307.303L65.352,306.375L64.555,305.448L63.761,304.522L62.972,303.597L62.187,302.673L61.407,301.751L60.631,300.83L59.859,299.91L59.092,298.992L58.328,298.074L57.569,297.158L56.815,296.243L56.064,295.329L55.318,294.417L54.576,293.506L53.839,292.596L53.105,291.688L52.376,290.78L51.651,289.874L50.93,288.969L50.213,288.066L49.501,287.164L48.792,286.263L48.088,285.363L47.388,284.465L46.692,283.568L46,282.673L45.312,281.778L44.628,280.885L43.948,279.994L43.273,279.103L42.601,278.214L41.934,277.327L41.27,276.44L40.611,275.556L39.955,274.672L39.304,273.79L38.656,272.909L38.013,272.029L37.373,271.151L36.738,270.274L36.106,269.399L35.478,268.525L34.855,267.652L34.235,266.781L33.619,265.911L33.007,265.043L32.399,264.176L31.794,263.31L31.194,262.446L30.597,261.583L30.004,260.722L29.415,259.862L28.83,259.004L28.249,258.147L27.671,257.291L27.098,256.437L26.528,255.584L25.962,254.733L25.399,253.883L24.84,253.035L24.285,252.188L23.734,251.342L23.187,250.499L22.643,249.656L22.103,248.815L21.566,247.976L21.033,247.138L20.504,246.301L19.979,245.466L19.457,244.633L18.939,243.801L18.424,242.97L17.913,242.141L17.405,241.314L16.901,240.488L16.401,239.664L15.905,238.841L15.411,238.019L14.922,237.2L14.436,236.382L13.953,235.565L13.474,234.75L12.998,233.936L12.526,233.124L12.057,232.314L11.592,231.505L11.131,230.698L10.672,229.892L10.217,229.088L9.766,228.286L9.318,227.485L8.873,226.686L8.432,225.888L7.994,225.092L7.56,224.298L7.129,223.505L6.701,222.714L6.276,221.924L5.855,221.136L5.437,220.35L5.023,219.566L4.612,218.783L4.204,218.001L3.799,217.222L3.398,216.444L2.999,215.667L2.605,214.893L2.213,214.12L1.824,213.348L1.439,212.579L1.057,211.811L0.678,211.044L0.301,210.276L0.071,209.806L-0.157,209.333L-0.385,208.86L-0.61,208.386L-0.834,207.911L-1.056,207.436L-1.276,206.961L-1.495,206.485L-1.712,206.009L-1.928,205.533L-2.141,205.056L-2.353,204.578L-2.564,204.101L-2.773,203.623L-2.98,203.144L-3.185,202.665L-3.389,202.185L-3.591,201.706L-3.791,201.225L-3.99,200.745L-4.187,200.264L-4.382,199.783L-4.576,199.301L-4.768,198.819L-4.959,198.336L-5.147,197.853L-5.334,197.37L-5.52,196.887L-5.704,196.403L-5.886,195.919L-6.066,195.434L-6.245,194.949L-6.422,194.464L-6.598,193.978L-6.771,193.493L-6.944,193.006L-7.114,192.52L-7.283,192.033L-7.45,191.546L-7.616,191.059L-7.78,190.571L-7.942,190.083L-8.102,189.595L-8.261,189.106L-8.419,188.617L-8.574,188.128L-8.728,187.639L-8.881,187.149L-9.032,186.659L-9.181,186.169L-9.328,185.678L-9.474,185.188L-9.618,184.697L-9.761,184.205L-9.902,183.714L-10.041,183.222L-10.179,182.73L-10.315,182.238L-10.449,181.746L-10.582,181.253L-10.713,180.76L-10.842,180.267L-10.97,179.774L-11.096,179.281L-11.221,178.787L-11.344,178.293L-11.465,177.799L-11.585,177.305L-11.703,176.811L-11.82,176.316L-11.934,175.821L-12.048,175.326L-12.159,174.831L-12.269,174.336L-12.377,173.841L-12.484,173.345L-12.589,172.849L-12.693,172.353L-12.795,171.857L-12.895,171.361L-12.994,170.865L-13.091,170.368L-13.186,169.872L-13.28,169.375L-13.372,168.878L-13.463,168.381L-13.552,167.884L-13.639,167.387L-13.725,166.89L-13.809,166.392L-13.892,165.895L-13.973,165.397L-14.052,164.9L-14.13,164.402L-14.206,163.904L-14.281,163.406L-14.354,162.908L-14.425,162.41L-14.495,161.912L-14.563,161.414L-14.63,160.916L-14.695,160.418L-14.758,159.919L-14.82,159.421L-14.88,158.923L-14.939,158.424L-14.996,157.926L-15.051,157.427L-15.105,156.929L-15.157,156.43L-15.208,155.931L-15.257,155.433L-15.305,154.934L-15.351,154.436L-15.395,153.937L-15.438,153.438L-15.479,152.94L-15.519,152.441L-15.557,151.942L-15.593,151.444L-15.628,150.945L-15.662,150.447L-15.694,149.948L-15.724,149.45L-15.752,148.951L-15.779,148.453L-15.805,147.954L-15.829,147.456L-15.851,146.958L-15.872,146.46L-15.891,145.961L-15.909,145.463L-15.925,144.965L-15.94,144.467L-15.953,143.969L-15.964,143.471L-15.974,142.974L-15.982,142.476L-15.989,141.978L-15.994,141.481L-15.998,140.984L-16,140.486L-16.001,139.989L-16,139.492L-15.997,138.995L-15.993,138.498L-15.987,138.001L-15.98,137.505L-15.971,137.008L-15.961,136.512L-15.949,136.016L-15.936,135.519L-15.921,135.023L-15.904,134.528L-15.886,134.032L-15.867,133.536L-15.846,133.041L-15.823,132.546L-15.799,132.051L-15.773,131.556L-15.746,131.061L-15.717,130.567L-15.687,130.072L-15.655,129.578L-15.622,129.084L-15.587,128.59L-15.551,128.097L-15.513,127.603L-15.473,127.11L-15.432,126.617L-15.39,126.124L-15.346,125.631L-15.3,125.139L-15.253,124.647L-15.204,124.155L-15.154,123.663L-15.103,123.172L-15.05,122.68L-14.995,122.189L-14.939,121.699L-14.881,121.208L-14.822,120.718L-14.761,120.228L-14.699,119.738L-14.635,119.248L-14.57,118.759L-14.503,118.27L-14.435,117.781L-14.365,117.293L-14.293,116.805L-14.221,116.317L-14.146,115.829L-14.07,115.342L-13.993,114.855L-13.914,114.368L-13.834,113.882L-13.752,113.395L-13.669,112.91L-13.584,112.424L-13.498,111.939L-13.41,111.454L-13.32,110.969L-13.23,110.485L-13.137,110.001L-13.044,109.518L-12.948,109.034L-12.851,108.551L-12.753,108.069L-12.653,107.587L-12.552,107.105L-12.449,106.623L-12.345,106.142L-12.239,105.661L-12.132,105.181L-12.024,104.701L-11.913,104.221L-11.802,103.742L-11.689,103.263L-11.574,102.784L-11.458,102.306L-11.34,101.828L-11.221,101.351L-11.101,100.874L-10.979,100.398L-10.855,99.921L-10.73,99.446L-10.604,98.97L-10.476,98.495L-10.347,98.021L-10.216,97.547L-10.083,97.073L-9.95,96.6L-9.814,96.127L-9.678,95.655L-9.539,95.183L-9.4,94.711L-9.259,94.24L-9.116,93.77L-8.972,93.3L-8.826,92.83L-8.68,92.361L-8.531,91.892L-8.381,91.424L-8.23,90.956L-8.077,90.489L-7.923,90.022L-7.767,89.556L-7.61,89.09L-7.451,88.625L-7.291,88.16L-7.13,87.696L-6.967,87.232L-6.802,86.769L-6.636,86.306L-6.469,85.844L-6.3,85.382L-6.13,84.921L-5.958,84.46L-5.785,84L-5.61,83.54L-5.434,83.081L-5.257,82.623L-5.078,82.165L-4.898,81.708L-4.716,81.251L-4.533,80.794L-4.348,80.339L-4.162,79.883L-3.974,79.429L-3.785,78.975L-3.595,78.521L-3.403,78.069L-3.21,77.616L-3.015,77.165L-2.819,76.713L-2.621,76.263L-2.422,75.813L-2.222,75.364L-2.02,74.915L-1.817,74.467L-1.612,74.019L-1.406,73.573L-1.198,73.126L-0.989,72.681L-0.779,72.236L-0.567,71.792L-0.354,71.348L-0.139,70.905L0.077,70.462L0.295,70.021L0.514,69.58L0.734,69.139L0.956,68.699L1.179,68.26L1.404,67.822L1.63,67.384L1.857,66.947L2.086,66.511L2.316,66.075L2.548,65.64L2.781,65.206L3.016,64.772L3.252,64.339L3.489,63.907L3.728,63.475L3.968,63.045L4.21,62.614L4.452,62.185L4.697,61.756L4.943,61.329L5.19,60.901L5.438,60.475L5.688,60.049L5.94,59.624L6.192,59.2L6.447,58.777L6.702,58.354L6.959,57.932L7.217,57.511L7.477,57.09L7.738,56.671L8.001,56.252L8.265,55.834L8.53,55.416L8.797,55L9.065,54.584L9.334,54.169L9.605,53.755L9.878,53.342L10.151,52.929L10.426,52.517L10.703,52.107L10.98,51.697L11.26,51.287L11.54,50.879L11.822,50.471L12.105,50.064L12.39,49.659L12.676,49.253L12.964,48.849L13.252,48.446L13.543,48.043L13.834,47.642L14.127,47.241L14.421,46.841L14.717,46.442L15.014,46.044L15.312,45.646L15.612,45.25L15.913,44.854L16.216,44.46L16.52,44.066L16.825,43.673L17.132,43.281L17.44,42.89L17.749,42.5L18.06,42.111L18.372,41.722L18.685,41.335L19,40.949L19.316,40.563L19.633,40.178L19.952,39.795L20.272,39.412L20.594,39.03L20.917,38.649L21.241,38.27L21.566,37.891L21.893,37.513L22.222,37.136L22.551,36.76L22.882,36.385L23.214,36.011L23.548,35.638L23.883,35.266L24.219,34.895L24.557,34.525L24.896,34.156L25.236,33.788L25.578,33.421L25.921,33.055L26.265,32.69L26.611,32.326L26.958,31.963L27.306,31.601L27.656,31.24L28.007,30.88L28.359,30.521L28.712,30.163L29.067,29.807L29.424,29.451L29.781,29.096L30.14,28.743L30.5,28.391L30.862,28.039L31.225,27.689L31.589,27.34L31.954,26.991L32.321,26.644L32.689,26.298L33.058,25.953L33.429,25.61L33.801,25.267L34.174,24.926L34.549,24.585L34.925,24.246L35.302,23.908L35.681,23.57L36.06,23.235L36.442,22.9L36.824,22.566L37.208,22.234L37.593,21.902L37.979,21.572L38.366,21.243L38.755,20.915L39.146,20.588L39.537,20.263L39.93,19.938L40.324,19.615L40.719,19.293L41.116,18.972L41.513,18.652L41.912,18.334L42.313,18.016L42.715,17.7L43.117,17.386L43.522,17.072L43.927,16.759L44.334,16.448L44.742,16.138L45.151,15.829L45.562,15.522L45.974,15.215L46.387,14.91L46.801,14.606L47.217,14.304L47.633,14.003L48.052,13.702L48.471,13.404L48.892,13.106L49.313,12.81L49.737,12.515L50.161,12.221L50.586,11.928L51.013,11.637L51.441,11.347L51.871,11.059L52.301,10.771L52.733,10.485L53.166,10.201L53.6,9.917L54.036,9.635L54.473,9.354L54.911,9.075L55.35,8.797L55.79,8.52L56.232,8.244L56.675,7.97L57.119,7.698L57.564,7.426L58.011,7.156L58.458,6.887L58.907,6.62L59.358,6.354L59.809,6.089L60.261,5.826L60.715,5.564L61.17,5.303L61.626,5.044L62.084,4.787L62.542,4.53L63.002,4.275L63.463,4.022L63.925,3.769L64.389,3.519L64.853,3.269L65.319,3.021L65.786,2.775L66.254,2.53L66.723,2.286L67.194,2.044L67.666,1.803L68.138,1.563L68.612,1.326L69.088,1.089L69.564,0.854L70.041,0.62L70.52,0.388L71,0.157L71.481,-0.072L71.963,-0.299L72.447,-0.526L72.931,-0.751L73.417,-0.974L73.904,-1.196L74.392,-1.416L74.881,-1.635L75.371,-1.852L75.862,-2.068L76.355,-2.283L76.849,-2.495L77.343,-2.707L77.839,-2.917L78.337,-3.125L78.835,-3.332L79.334,-3.537L79.835,-3.741L80.336,-3.943L80.839,-4.144L81.343,-4.343L81.85,-4.541L82.44,-4.769L83.032,-4.996L83.624,-5.22L84.215,-5.44L84.805,-5.658L85.395,-5.873L85.985,-6.086L86.574,-6.295L87.162,-6.502L87.75,-6.706L88.338,-6.906L88.924,-7.105L89.51,-7.3L90.096,-7.493L90.681,-7.682L91.266,-7.869L91.85,-8.054L92.433,-8.235L93.016,-8.414L93.598,-8.59L94.179,-8.763L94.76,-8.934L95.341,-9.101L95.921,-9.267L96.5,-9.429L97.078,-9.588L97.656,-9.745L98.234,-9.9L98.81,-10.051L99.386,-10.2L99.962,-10.346L100.537,-10.49L101.111,-10.631L101.684,-10.769L102.257,-10.905L102.829,-11.038L103.401,-11.168L103.972,-11.296L104.542,-11.421L105.112,-11.544L105.681,-11.664L106.249,-11.781L106.816,-11.896L107.383,-12.008L107.949,-12.118L108.515,-12.225L109.08,-12.329L109.644,-12.431L110.207,-12.531L110.77,-12.628L111.331,-12.722L111.893,-12.814L112.453,-12.904L113.013,-12.991L113.572,-13.075L114.13,-13.157L114.688,-13.237L115.244,-13.314L115.8,-13.389L116.356,-13.461L116.91,-13.531L117.464,-13.598L118.017,-13.663L118.569,-13.726L119.12,-13.786L119.671,-13.843L120.22,-13.899L120.769,-13.952L121.318,-14.003L121.865,-14.051L122.411,-14.097L122.957,-14.141L123.502,-14.182L124.046,-14.221L124.589,-14.258L125.132,-14.292L125.673,-14.324L126.214,-14.354L126.754,-14.382L127.293,-14.407L127.831,-14.43L128.369,-14.451L128.905,-14.47L129.441,-14.486L129.975,-14.5L130.509,-14.512L131.042,-14.522L131.574,-14.53L132.105,-14.535L132.635,-14.539L133.165,-14.54L133.693,-14.539L134.221,-14.536L134.747,-14.53L135.273,-14.523L135.798,-14.513L136.322,-14.502L136.844,-14.488L137.366,-14.473L137.887,-14.455L138.407,-14.435L138.927,-14.413L139.445,-14.389L139.962,-14.363L140.478,-14.335L140.993,-14.305L141.508,-14.273L142.021,-14.24L142.533,-14.204L143.045,-14.166L143.555,-14.126L144.065,-14.084L144.573,-14.041L145.08,-13.995L145.587,-13.948L146.092,-13.898L146.597,-13.847L147.1,-13.794L147.603,-13.739L148.104,-13.682L148.604,-13.623L149.104,-13.563L149.602,-13.5L150.099,-13.436L150.595,-13.37L151.09,-13.302L151.585,-13.233L152.078,-13.162L152.57,-13.089L153.061,-13.014L153.551,-12.937L154.04,-12.859L154.527,-12.779L155.014,-12.697L155.5,-12.614L155.984,-12.529L156.468,-12.442L156.951,-12.354L157.432,-12.264L157.912,-12.172L158.391,-12.079L158.869,-11.984L159.347,-11.887L159.823,-11.789L160.297,-11.689L160.771,-11.588L161.244,-11.485L161.715,-11.381L162.186,-11.275L162.655,-11.167L163.123,-11.058L163.591,-10.948L164.057,-10.836L164.521,-10.722L164.985,-10.607L165.448,-10.491L165.909,-10.373L166.37,-10.254L166.829,-10.133L167.287,-10.011L167.744,-9.887L168.2,-9.762L168.655,-9.636L169.108,-9.508L169.561,-9.379L170.012,-9.249L170.462,-9.117L170.911,-8.984L171.359,-8.849L171.806,-8.714L172.252,-8.577L172.696,-8.438L173.139,-8.299L173.581,-8.158L174.022,-8.016L174.462,-7.872L174.901,-7.728L175.338,-7.582L175.774,-7.435L176.21,-7.287L176.643,-7.137L177.076,-6.986L177.508,-6.835L177.938,-6.682L178.368,-6.528L178.796,-6.372L179.223,-6.216L179.648,-6.059L180.073,-5.9L180.496,-5.74L180.918,-5.58L181.34,-5.418L181.759,-5.255L182.178,-5.091L182.596,-4.926L183.012,-4.76L183.427,-4.593L183.841,-4.425L184.253,-4.256L184.665,-4.086L185.075,-3.915L185.484,-3.743L185.892,-3.57L186.299,-3.396L186.705,-3.221L187.109,-3.045L187.512,-2.869L187.914,-2.691L188.315,-2.513L188.714,-2.334L189.113,-2.153L189.51,-1.972L189.906,-1.79L190.3,-1.608L190.694,-1.424L191.086,-1.24L191.477,-1.055L191.867,-0.869L192.256,-0.682L193.03,-0.306L193.415,-0.117L193.799,0.073L194.563,0.455L194.943,0.647L195.322,0.839L195.7,1.033L196.076,1.227L196.452,1.422L196.826,1.617L197.199,1.813L197.941,2.207L198.31,2.405L198.678,2.604L199.045,2.803L199.775,3.203L200.138,3.404L200.5,3.606L200.861,3.808L201.22,4.011L201.578,4.214L201.935,4.417L202.291,4.622L202.646,4.826L202.999,5.031L203.351,5.237L203.702,5.443L204.052,5.65L204.4,5.857L204.747,6.065L205.093,6.273L205.438,6.481L205.782,6.69L206.124,6.899L206.465,7.108L206.805,7.318L207.481,7.74L207.817,7.951L208.152,8.162L208.486,8.374L208.818,8.586L209.149,8.798L209.479,9.011L209.808,9.224L210.135,9.437L210.462,9.651L210.787,9.865L211.433,10.293L211.754,10.508L212.074,10.723L212.393,10.938L212.711,11.153L213.027,11.369L213.342,11.584L213.656,11.8L213.969,12.016L214.28,12.232L214.59,12.449L214.906,12.67L215.513,13.099L216.122,13.532L216.726,13.967L217.326,14.401L217.92,14.836L218.509,15.271L219.093,15.706L219.672,16.141L220.247,16.576L220.816,17.011L221.38,17.446L221.939,17.88L222.493,18.314L223.043,18.748L223.587,19.181L224.126,19.614L224.66,20.046L225.189,20.477L225.713,20.907L226.232,21.337L226.746,21.765L227.255,22.193L227.759,22.619L228.258,23.045L228.751,23.469L229.24,23.891L229.724,24.313L230.202,24.733L230.676,25.151L231.144,25.568L231.607,25.983L232.066,26.396L232.519,26.808L232.967,27.217L233.41,27.625L233.847,28.03L234.28,28.434L234.708,28.835L235.13,29.234L235.547,29.631L235.96,30.026L236.367,30.418L236.769,30.807L237.165,31.194L237.557,31.578L237.943,31.959L238.325,32.338L238.701,32.713L239.072,33.086L239.437,33.455L239.798,33.822L240.153,34.185L240.503,34.545L240.848,34.902L241.188,35.255L241.523,35.605L241.852,35.951L242.176,36.294L242.495,36.633L242.808,36.968L243.117,37.299L243.42,37.627L243.718,37.95L244.01,38.27L244.297,38.585L244.579,38.897L244.856,39.204L245.127,39.506L245.394,39.804L245.654,40.098L245.91,40.387L246.16,40.672L246.405,40.952L246.644,41.227L246.878,41.498L247.113,41.77L247.549,42.279L247.969,42.775L248.367,43.249L248.744,43.702L249.099,44.133L249.433,44.542L249.745,44.927L250.035,45.288L250.303,45.625L250.549,45.937L250.773,46.223L250.975,46.484L251.155,46.718L251.312,46.924L251.455,47.113L251.643,47.365L251.718,47.466L225.972,66.47L225.959,66.453L225.886,66.354L225.832,66.284L225.751,66.177L225.648,66.044L225.526,65.886L225.382,65.702L225.218,65.494L225.034,65.263L224.83,65.008L224.605,64.731L224.361,64.432L224.097,64.111L223.812,63.769L223.508,63.407L223.185,63.025L222.836,62.617L222.663,62.417L222.479,62.205L222.291,61.988L222.098,61.767L221.9,61.542L221.697,61.312L221.489,61.078L221.277,60.841L221.06,60.598L220.838,60.352L220.612,60.103L220.38,59.849L220.145,59.591L219.904,59.33L219.659,59.065L219.409,58.797L219.155,58.524L218.896,58.249L218.632,57.97L218.364,57.688L218.091,57.403L217.814,57.115L217.532,56.823L217.246,56.529L216.955,56.231L216.659,55.931L216.359,55.628L216.055,55.322L215.746,55.014L215.433,54.703L215.116,54.39L214.794,54.074L214.467,53.756L214.136,53.435L213.801,53.113L213.462,52.788L213.118,52.461L212.77,52.132L212.417,51.801L212.061,51.469L211.7,51.134L211.335,50.798L210.965,50.46L210.591,50.121L210.214,49.78L209.832,49.438L209.445,49.094L209.055,48.749L208.661,48.403L208.262,48.056L207.859,47.707L207.452,47.358L207.041,47.008L206.626,46.656L206.207,46.304L205.784,45.952L205.357,45.598L204.926,45.244L204.491,44.89L204.052,44.535L203.61,44.18L203.163,43.824L202.712,43.468L202.257,43.112L201.799,42.756L201.337,42.4L200.87,42.043L200.4,41.687L199.927,41.331L199.449,40.976L198.968,40.62L198.482,40.265L197.994,39.911L197.501,39.557L197.005,39.203L196.497,38.845L196.253,38.674L196.001,38.498L195.748,38.322L195.494,38.146L195.239,37.971L194.983,37.796L194.726,37.621L194.468,37.446L194.209,37.272L193.95,37.098L193.69,36.924L193.428,36.75L193.166,36.577L192.903,36.403L192.639,36.231L192.374,36.058L192.108,35.886L191.842,35.714L191.574,35.542L191.306,35.371L191.037,35.2L190.766,35.03L190.495,34.86L190.224,34.69L189.951,34.52L189.677,34.351L189.403,34.183L189.127,34.014L188.851,33.846L188.574,33.679L188.296,33.512L188.018,33.345L187.738,33.179L187.457,33.013L187.176,32.848L186.894,32.683L186.611,32.519L186.327,32.355L186.043,32.192L185.757,32.029L185.471,31.867L185.184,31.705L184.896,31.544L184.607,31.383L184.317,31.222L184.027,31.063L183.736,30.904L183.444,30.745L183.151,30.587L182.857,30.429L182.562,30.272L182.267,30.116L181.971,29.961L181.674,29.805L181.376,29.651L181.078,29.497L180.779,29.344L180.478,29.191L180.177,29.039L179.876,28.888L179.573,28.737L179.27,28.587L178.966,28.438L178.661,28.289L178.355,28.141L178.049,27.994L177.742,27.847L177.433,27.702L177.125,27.556L176.815,27.412L176.505,27.268L176.194,27.125L175.882,26.983L175.569,26.842L175.256,26.701L174.941,26.561L174.626,26.422L174.311,26.284L173.994,26.146L173.677,26.01L173.359,25.874L173.04,25.739L172.721,25.604L172.401,25.471L172.08,25.338L171.758,25.206L171.435,25.075L171.112,24.945L170.788,24.816L170.463,24.688L170.138,24.56L169.812,24.434L169.485,24.308L169.157,24.183L168.829,24.059L168.499,23.937L168.169,23.814L167.839,23.693L167.507,23.573L167.175,23.454L166.843,23.336L166.509,23.218L166.175,23.102L165.84,22.987L165.504,22.872L165.167,22.759L164.83,22.647L164.492,22.535L164.154,22.425L163.814,22.315L163.474,22.207L163.134,22.1L162.792,21.993L162.45,21.888L162.107,21.784L161.763,21.681L161.419,21.579L161.074,21.478L160.728,21.378L160.382,21.279L160.035,21.181L159.687,21.084L159.338,20.989L158.989,20.894L158.639,20.801L158.288,20.709L157.936,20.618L157.584,20.528L157.231,20.439L156.878,20.351L156.524,20.265L156.169,20.18L155.813,20.096L155.457,20.013L155.099,19.931L154.742,19.85L154.383,19.771L154.024,19.693L153.664,19.616L153.303,19.54L152.942,19.465L152.58,19.392L152.217,19.32L151.854,19.249L151.49,19.18L151.125,19.112L150.759,19.045L150.393,18.979L150.026,18.915L149.659,18.851L149.29,18.79L148.921,18.729L148.551,18.67L148.181,18.612L147.81,18.555L147.438,18.5L147.065,18.446L146.692,18.394L146.318,18.343L145.943,18.293L145.567,18.244L145.191,18.197L144.814,18.152L144.437,18.107L144.058,18.064L143.679,18.023L143.299,17.983L142.919,17.944L142.538,17.907L142.156,17.871L141.773,17.837L141.39,17.804L141.006,17.772L140.621,17.742L140.235,17.714L139.849,17.687L139.462,17.661L139.074,17.637L138.686,17.615L138.296,17.593L137.906,17.574L137.516,17.556L137.124,17.539L136.732,17.524L136.339,17.511L135.946,17.499L135.551,17.489L135.156,17.48L134.76,17.473L134.363,17.467L133.966,17.464L133.568,17.461L133.169,17.46L132.769,17.461L132.369,17.464L131.968,17.468L131.566,17.474L131.163,17.481L130.76,17.49L130.355,17.501L129.95,17.513L129.545,17.527L129.138,17.543L128.731,17.561L128.323,17.58L127.914,17.601L127.504,17.623L127.094,17.648L126.682,17.674L126.27,17.702L125.857,17.731L125.444,17.763L125.03,17.796L124.614,17.831L124.198,17.867L123.782,17.906L123.364,17.946L122.946,17.989L122.526,18.033L122.106,18.078L121.686,18.126L121.264,18.176L120.841,18.227L120.418,18.28L119.994,18.335L119.569,18.393L119.143,18.452L118.717,18.512L118.29,18.575L117.861,18.64L117.432,18.707L117.002,18.775L116.572,18.846L116.14,18.918L115.708,18.993L115.275,19.069L114.841,19.148L114.406,19.228L113.97,19.311L113.533,19.396L113.096,19.482L112.658,19.571L112.218,19.662L111.778,19.754L111.338,19.849L110.896,19.946L110.453,20.045L110.01,20.146L109.565,20.25L109.12,20.355L108.674,20.463L108.227,20.572L107.779,20.684L107.331,20.798L106.881,20.914L106.431,21.033L105.979,21.153L105.527,21.276L105.074,21.401L104.62,21.528L104.165,21.658L103.71,21.79L103.253,21.924L102.796,22.06L102.337,22.198L101.878,22.339L101.418,22.482L100.957,22.628L100.495,22.776L100.032,22.926L99.568,23.078L99.103,23.233L98.638,23.391L98.171,23.55L97.704,23.712L97.236,23.877L96.766,24.043L96.296,24.213L95.825,24.384L95.353,24.559L94.881,24.735L94.407,24.914L93.932,25.096L93.454,25.281L93.053,25.438L92.65,25.597L92.249,25.757L91.848,25.919L91.449,26.081L91.051,26.245L90.653,26.41L90.257,26.576L89.862,26.743L89.468,26.911L89.074,27.081L88.682,27.252L88.291,27.424L87.901,27.597L87.511,27.771L87.123,27.946L86.736,28.123L86.35,28.3L85.965,28.479L85.581,28.659L85.197,28.84L84.815,29.022L84.434,29.205L84.054,29.389L83.675,29.575L83.297,29.761L82.92,29.949L82.544,30.138L82.169,30.328L81.795,30.519L81.422,30.711L81.05,30.904L80.679,31.098L80.309,31.293L79.94,31.49L79.572,31.687L79.205,31.886L78.839,32.086L78.474,32.286L78.11,32.488L77.747,32.691L77.385,32.895L77.024,33.1L76.664,33.306L76.305,33.513L75.947,33.722L75.591,33.931L75.235,34.141L74.88,34.352L74.526,34.565L74.173,34.778L73.821,34.993L73.471,35.208L73.121,35.425L72.772,35.642L72.424,35.861L72.078,36.08L71.732,36.301L71.387,36.523L71.043,36.745L70.7,36.969L70.359,37.194L70.018,37.419L69.678,37.646L69.34,37.874L69.002,38.102L68.665,38.332L68.33,38.563L67.995,38.794L67.662,39.027L67.329,39.261L66.997,39.495L66.667,39.731L66.337,39.967L66.009,40.205L65.681,40.444L65.354,40.683L65.029,40.923L64.704,41.165L64.381,41.407L64.058,41.65L63.737,41.895L63.417,42.14L63.097,42.386L62.779,42.633L62.461,42.881L62.145,43.13L61.83,43.38L61.515,43.631L61.202,43.883L60.889,44.135L60.578,44.389L60.268,44.644L59.959,44.899L59.65,45.156L59.343,45.413L59.037,45.671L58.732,45.93L58.427,46.19L58.124,46.451L57.822,46.713L57.521,46.976L57.221,47.239L56.922,47.504L56.624,47.769L56.327,48.036L56.031,48.303L55.736,48.571L55.442,48.84L55.149,49.11L54.857,49.38L54.566,49.652L54.276,49.924L53.987,50.198L53.7,50.472L53.413,50.747L53.127,51.023L52.842,51.3L52.559,51.577L52.276,51.856L51.994,52.135L51.714,52.415L51.434,52.696L51.156,52.978L50.878,53.261L50.602,53.544L50.326,53.828L50.052,54.113L49.779,54.399L49.506,54.686L49.235,54.974L48.965,55.262L48.696,55.551L48.427,55.841L48.16,56.132L47.894,56.424L47.629,56.716L47.365,57.01L47.102,57.304L46.84,57.599L46.579,57.894L46.319,58.191L46.061,58.488L45.803,58.786L45.546,59.085L45.29,59.384L45.036,59.684L44.782,59.985L44.53,60.287L44.278,60.59L44.028,60.893L43.778,61.197L43.53,61.502L43.283,61.808L43.037,62.114L42.791,62.422L42.547,62.729L42.304,63.038L42.062,63.348L41.821,63.658L41.581,63.969L41.343,64.28L41.105,64.592L40.868,64.905L40.632,65.219L40.398,65.534L40.164,65.849L39.932,66.165L39.7,66.481L39.47,66.799L39.241,67.117L39.013,67.436L38.785,67.755L38.559,68.075L38.334,68.396L38.11,68.717L37.888,69.04L37.666,69.363L37.445,69.686L37.225,70.01L37.007,70.335L36.789,70.661L36.573,70.987L36.357,71.314L36.143,71.642L35.93,71.97L35.718,72.299L35.507,72.629L35.297,72.959L35.088,73.29L34.88,73.621L34.673,73.954L34.468,74.286L34.263,74.62L34.06,74.954L33.857,75.289L33.656,75.624L33.456,75.96L33.257,76.297L33.059,76.634L32.862,76.972L32.666,77.31L32.471,77.649L32.278,77.989L32.085,78.329L31.894,78.67L31.703,79.012L31.514,79.354L31.326,79.697L31.139,80.04L30.953,80.384L30.768,80.728L30.584,81.073L30.401,81.419L30.22,81.765L30.039,82.112L29.86,82.459L29.682,82.807L29.505,83.155L29.329,83.504L29.154,83.854L28.98,84.204L28.807,84.555L28.636,84.906L28.465,85.258L28.296,85.61L28.127,85.963L27.96,86.316L27.794,86.67L27.629,87.025L27.466,87.38L27.303,87.735L27.141,88.091L26.981,88.448L26.822,88.805L26.664,89.162L26.507,89.52L26.351,89.879L26.196,90.238L26.042,90.598L25.89,90.958L25.738,91.318L25.588,91.679L25.439,92.041L25.291,92.403L25.144,92.765L24.998,93.128L24.853,93.492L24.71,93.856L24.568,94.22L24.426,94.585L24.286,94.95L24.147,95.316L24.01,95.682L23.873,96.049L23.737,96.416L23.603,96.784L23.47,97.152L23.338,97.52L23.207,97.889L23.077,98.258L22.948,98.628L22.821,98.998L22.694,99.369L22.569,99.74L22.445,100.111L22.322,100.483L22.201,100.856L22.08,101.228L21.961,101.601L21.842,101.975L21.725,102.349L21.609,102.723L21.494,103.098L21.381,103.473L21.268,103.848L21.157,104.224L21.047,104.6L20.938,104.977L20.83,105.354L20.723,105.731L20.618,106.109L20.513,106.487L20.41,106.865L20.308,107.244L20.207,107.623L20.108,108.002L20.009,108.382L19.912,108.762L19.816,109.143L19.721,109.524L19.627,109.905L19.534,110.286L19.443,110.668L19.353,111.05L19.263,111.433L19.176,111.816L19.089,112.199L19.003,112.582L18.919,112.966L18.836,113.35L18.754,113.734L18.673,114.119L18.593,114.504L18.515,114.889L18.437,115.274L18.361,115.66L18.287,116.046L18.213,116.433L18.14,116.819L18.069,117.206L17.999,117.593L17.93,117.981L17.862,118.368L17.796,118.756L17.73,119.145L17.666,119.533L17.603,119.922L17.541,120.311L17.481,120.7L17.422,121.089L17.363,121.479L17.306,121.869L17.251,122.259L17.196,122.65L17.143,123.04L17.091,123.431L17.04,123.822L16.99,124.213L16.941,124.605L16.894,124.997L16.848,125.388L16.803,125.781L16.759,126.173L16.717,126.565L16.676,126.958L16.636,127.351L16.597,127.744L16.559,128.137L16.523,128.531L16.488,128.924L16.454,129.318L16.421,129.712L16.389,130.106L16.359,130.5L16.33,130.895L16.302,131.289L16.275,131.684L16.25,132.079L16.226,132.474L16.203,132.869L16.181,133.264L16.16,133.66L16.141,134.055L16.123,134.451L16.106,134.847L16.091,135.243L16.076,135.639L16.063,136.035L16.051,136.432L16.04,136.828L16.031,137.225L16.023,137.621L16.016,138.018L16.01,138.415L16.006,138.812L16.002,139.209L16,139.606L15.999,140.004L16,140.401L16.004,141.196L16.009,141.593L16.014,141.991L16.021,142.389L16.029,142.787L16.038,143.184L16.048,143.582L16.06,143.98L16.073,144.378L16.087,144.776L16.102,145.174L16.119,145.573L16.137,145.971L16.156,146.369L16.176,146.767L16.198,147.166L16.221,147.564L16.245,147.962L16.27,148.361L16.297,148.759L16.325,149.157L16.354,149.556L16.384,149.954L16.416,150.353L16.449,150.751L16.483,151.15L16.555,151.946L16.593,152.345L16.633,152.743L16.673,153.142L16.715,153.54L16.758,153.938L16.802,154.337L16.848,154.735L16.895,155.133L16.943,155.532L16.992,155.93L17.043,156.328L17.095,156.726L17.148,157.124L17.258,157.92L17.315,158.318L17.433,159.114L17.494,159.512L17.556,159.909L17.62,160.307L17.684,160.704L17.75,161.102L17.818,161.499L17.886,161.897L17.956,162.294L18.027,162.691L18.173,163.485L18.248,163.882L18.325,164.279L18.402,164.675L18.481,165.072L18.561,165.468L18.642,165.865L18.725,166.261L18.809,166.657L18.894,167.053L18.981,167.449L19.069,167.845L19.158,168.24L19.249,168.636L19.34,169.031L19.433,169.426L19.623,170.216L19.72,170.611L19.819,171.006L19.918,171.4L20.019,171.795L20.121,172.189L20.329,172.977L20.436,173.37L20.543,173.764L20.652,174.157L20.762,174.55L20.873,174.943L20.986,175.336L21.1,175.729L21.215,176.121L21.331,176.514L21.449,176.906L21.568,177.298L21.689,177.689L21.811,178.081L21.934,178.472L22.058,178.863L22.184,179.254L22.311,179.645L22.44,180.035L22.57,180.425L22.701,180.815L22.833,181.205L22.967,181.595L23.102,181.984L23.238,182.373L23.376,182.762L23.515,183.151L23.655,183.539L23.797,183.927L23.94,184.315L24.084,184.703L24.23,185.09L24.377,185.477L24.525,185.864L24.675,186.251L24.826,186.637L25.132,187.409L25.287,187.795L25.444,188.18L25.602,188.565L25.761,188.95L25.921,189.334L26.083,189.718L26.246,190.102L26.41,190.486L26.576,190.869L26.743,191.252L26.912,191.635L27.082,192.017L27.253,192.399L27.426,192.781L27.6,193.163L27.775,193.544L27.952,193.925L28.13,194.305L28.309,194.686L28.49,195.066L28.672,195.445L28.855,195.825L29.041,196.206L29.381,196.896L29.725,197.592L30.072,198.29L30.422,198.989L30.775,199.69L31.131,200.394L31.491,201.099L31.853,201.806L32.219,202.515L32.588,203.225L32.96,203.938L33.335,204.652L33.714,205.368L34.095,206.086L34.48,206.806L34.868,207.527L35.259,208.251L35.653,208.976L36.051,209.703L36.452,210.432L36.856,211.163L37.263,211.895L37.674,212.629L38.088,213.365L38.506,214.103L38.926,214.843L39.35,215.584L39.778,216.327L40.208,217.072L40.643,217.818L41.08,218.567L41.521,219.317L41.965,220.069L42.413,220.822L42.864,221.577L43.319,222.334L43.777,223.093L44.238,223.854L44.703,224.616L45.172,225.38L45.644,226.145L46.119,226.913L46.598,227.682L47.081,228.453L47.567,229.225L48.057,229.999L48.55,230.775L49.047,231.552L49.547,232.331L50.051,233.112L50.559,233.895L51.07,234.679L51.585,235.465L52.104,236.252L52.626,237.041L53.152,237.832L53.682,238.624L54.215,239.418L54.752,240.214L55.293,241.011L55.837,241.81L56.386,242.61L56.938,243.413L57.493,244.216L58.053,245.022L58.616,245.829L59.184,246.637L59.755,247.447L60.329,248.259L60.908,249.072L61.49,249.887L62.077,250.703L62.667,251.521L63.261,252.341L63.859,253.162L64.461,253.985L65.067,254.809L65.677,255.635L66.29,256.462L66.908,257.291L67.53,258.122L68.155,258.954L68.785,259.787L69.419,260.622L70.056,261.458L70.698,262.296L71.344,263.136L71.994,263.977L72.647,264.82L73.305,265.664L73.967,266.509L74.633,267.356L75.303,268.205L75.978,269.055L76.656,269.906L77.339,270.759L78.025,271.613L78.716,272.469L79.411,273.326L80.111,274.185L80.814,275.045L81.522,275.907L82.234,276.77L82.95,277.634L83.67,278.5L84.395,279.368L85.124,280.236L85.857,281.107L86.594,281.978L87.336,282.851L88.082,283.725L88.833,284.601L89.587,285.478L90.347,286.357L91.11,287.237L91.878,288.118L92.65,289.001L93.427,289.885L94.208,290.771L94.993,291.657L95.783,292.545L96.577,293.435L97.376,294.326L98.179,295.218L98.987,296.112L99.8,297.006L100.616,297.903L101.437,298.8L102.263,299.699L103.094,300.599L103.928,301.501L104.768,302.403L105.612,303.307L106.46,304.213L107.313,305.12L108.171,306.027L109.034,306.937L109.901,307.847L110.772,308.759L111.648,309.672L112.529,310.587L113.415,311.502L114.305,312.419L115.2,313.337L116.1,314.257L117.005,315.177L117.914,316.099L118.828,317.022L119.746,317.946L120.67,318.872L121.598,319.799L122.531,320.727L123.469,321.656L124.411,322.586L125.359,323.518L126.311,324.451L127.268,325.385L128.23,326.32L129.197,327.256L130.169,328.194L131.145,329.133L132.127,330.072L133.113,331.014L134.105,331.956L135.101,332.899L136.102,333.844L137.108,334.789L138.12,335.736L139.136,336.684L140.157,337.633L141.183,338.584L142.214,339.535L143.251,340.487L144.292,341.441L145.338,342.396L146.389,343.352L147.446,344.308L148.507,345.267L149.574,346.226L150.646,347.186L151.723,348.147L152.805,349.11L153.892,350.073L154.984,351.038L156.082,352.003L157.184,352.97L158.292,353.938L159.405,354.906L160.523,355.876L161.647,356.847L162.776,357.819L163.91,358.792L165.049,359.766L166.193,360.741L167.343,361.717L168.498,362.694L169.659,363.672L170.824,364.651L171.995,365.631L173.172,366.612L174.353,367.594L175.54,368.577L176.733,369.561L177.93,370.546L179.134,371.532L180.342,372.519L181.556,373.507L182.776,374.496L184.001,375.486L185.231,376.477L186.467,377.468L187.708,378.461L188.955,379.455L190.207,380.449L191.465,381.445L192.728,382.441L193.997,383.438L195.272,384.437L196.552,385.436L197.837,386.436L199.128,387.437L200.425,388.439L201.727,389.441L203.035,390.445L204.349,391.45L205.668,392.455L206.993,393.461L208.323,394.468L209.659,395.476L211.001,396.485L212.348,397.495L213.701,398.506L215.06,399.517L216.425,400.529L217.795,401.542L219.171,402.556L220.553,403.571L221.941,404.587L223.334,405.603L224.734,406.62L226.139,407.638L227.549,408.657L228.966,409.677L230.389,410.698L231.817,411.719L233.251,412.741L234.691,413.764L236.137,414.787L237.589,415.812L239.047,416.837L240.51,417.863L241.98,418.889L243.455,419.917L244.937,420.945L246.425,421.974L247.928,423.01L229.764,449.356Z" style="fill:rgb(245,115,125);"/>
    </g>
</svg>
