<?xml version="1.0" standalone="no"?>
<!DOCTYPE svg PUBLIC "-//W3C//DTD SVG 1.1//EN" "http://www.w3.org/Graphics/SVG/1.1/DTD/svg11.dtd">
<svg width="100%" height="100%" viewBox="0 0 490 490" version="1.1" xmlns="http://www.w3.org/2000/svg" xmlns:xlink="http://www.w3.org/1999/xlink" xml:space="preserve" style="fill-rule:evenodd;clip-rule:evenodd;stroke-linejoin:round;stroke-miterlimit:1.41421;">
    <g transform="matrix(1,0,0,1,-4.7,-6.33)">
        <path d="M249.62,50.46C315.02,50.46 322.76,50.71 348.62,51.89C372.47,53 385.44,57 394.07,60.32C404.707,64.246 414.33,70.506 422.23,78.64C430.364,86.54 436.624,96.163 440.55,106.8C443.9,115.43 447.89,128.4 448.98,152.28C450.16,178.11 450.41,185.85 450.41,251.28C450.41,316.71 450.16,324.42 448.98,350.28C447.89,374.16 443.9,387.13 440.55,395.76C432.314,417.108 415.418,434.004 394.07,442.24C385.44,445.59 372.47,449.58 348.59,450.67C322.77,451.85 315.02,452.1 249.59,452.1C184.16,452.1 176.44,451.85 150.59,450.67C126.71,449.58 113.74,445.59 105.11,442.24C94.485,438.29 84.879,432.009 77,423.86C68.87,415.959 62.613,406.336 58.69,395.7C55.34,387.07 51.35,374.1 50.26,350.22C49.08,324.39 48.83,316.65 48.83,251.22C48.83,185.79 49.08,178.08 50.26,152.22C51.35,128.34 55.34,115.37 58.69,106.74C62.621,96.125 68.877,86.523 77,78.64C84.9,70.506 94.523,64.246 105.16,60.32C113.79,56.97 126.76,52.98 150.64,51.89C176.47,50.71 184.21,50.46 249.64,50.46M249.64,6.33C183.12,6.33 174.78,6.61 148.64,7.8C122.5,8.99 104.77,13.13 89.19,19.18C72.847,25.333 58.042,34.978 45.81,47.44C33.351,59.673 23.71,74.478 17.56,90.82C11.5,106.4 7.36,124.2 6.17,150.27C4.98,176.34 4.7,184.73 4.7,251.27C4.7,317.81 4.98,326.13 6.17,352.27C7.36,378.41 11.5,396.14 17.55,411.72C23.7,428.062 33.341,442.867 45.8,455.1C58.033,467.559 72.838,477.2 89.18,483.35C104.76,489.4 122.56,493.54 148.63,494.73C174.7,495.92 183.09,496.2 249.63,496.2C316.17,496.2 324.49,495.92 350.63,494.73C376.77,493.54 394.5,489.4 410.08,483.35C442.962,470.632 468.992,444.602 481.71,411.72C487.76,396.14 491.9,378.34 493.09,352.27C494.28,326.2 494.56,317.81 494.56,251.27C494.56,184.73 494.28,176.41 493.09,150.27C491.9,124.13 487.76,106.4 481.71,90.82C475.56,74.478 465.919,59.673 453.46,47.44C441.227,34.981 426.422,25.34 410.08,19.19C394.47,13.13 376.67,9 350.6,7.8C324.53,6.6 316.14,6.33 249.6,6.33L249.64,6.33Z" style="fill:rgb(149,152,154);fill-rule:nonzero;"/>
    </g>
    <g transform="matrix(1,0,0,1,-4.7,-6.33)">
        <path d="M249.62,125.48C180.625,125.48 123.85,182.255 123.85,251.25C123.85,320.245 180.625,377.02 249.62,377.02C318.615,377.02 375.39,320.245 375.39,251.25C375.39,182.255 318.615,125.48 249.62,125.48ZM249.62,332.89C204.834,332.89 167.98,296.036 167.98,251.25C167.98,206.464 204.834,169.61 249.62,169.61C294.406,169.61 331.26,206.464 331.26,251.25C331.26,296.036 294.406,332.89 249.62,332.89L249.62,332.89Z" style="fill:rgb(149,152,154);fill-rule:nonzero;"/>
    </g>
    <circle cx="375.66" cy="114.18" r="29.39" style="fill:rgb(149,152,154);"/>
</svg>
